<?xml version="1.0" encoding="utf-8"?>
<!-- Generator: Adobe Illustrator 21.1.0, SVG Export Plug-In . SVG Version: 6.00 Build 0)  -->
<svg version="1.1" id="Layer_1" xmlns="http://www.w3.org/2000/svg" xmlns:xlink="http://www.w3.org/1999/xlink" x="0px" y="0px"
	 viewBox="0 0 864 864" style="enable-background:new 0 0 864 864;" xml:space="preserve">
<style type="text/css">
	.st0{fill:#F2C819;stroke:#000000;stroke-miterlimit:10;}
	.st1{fill:#45FF5B;stroke:#000000;stroke-miterlimit:10;}
	.st2{fill:#FFF0CF;stroke:#000000;stroke-miterlimit:10;}
	.st3{fill:#CE8991;stroke:#000000;stroke-miterlimit:10;}
	.st4{fill:#FFFFFF;stroke:#000000;stroke-miterlimit:10;}
</style>
<title>Artboard 1</title>
<g id="Layer_10">
	<rect x="0" y="0.6" class="st0" width="864" height="864"/>
</g>
<g id="Layer_2">
	<polygon class="st1" points="138,861 161,736 149.5,731 156,639 161,611 177,587 204,577 260,569 269,569 274,561 282,572 316,587 
		366,590 374,592 385,590 395,582 402,574 414,577 414,586 482,626 509,657 521,678 521,715 521,745 510,746 510,866 138,866 	"/>
	<polygon class="st2" points="160,736 198,743 167,866 137,866 	"/>
	<polygon class="st2" points="510,746 510,866 478,866 478,749 	"/>
</g>
<g id="Layer_3">
	<path class="st2" d="M275,562l9-61v-35l-9-63l-6-20l-5,7h-7v-27l5-15h13l9,9v-34l8-38v-19h-5l-1-16h-6l-2-9.8l-3.5-17.2H307l51-22
		l109-19l37,8l6,9l6,2l14,41l8,58l5,38l-6,61l2,17h-13l-5,10l-11,5l-32,56l-29,22c-12.6,5.8-26.4,8.5-40.3,7.8l0.3,4.8
		c1.2,6.8,0.8,13.7-1,20.4l-8,34.3l-10,9.7l-19,9l-85-7L275,562z"/>
	<path d="M310,341.7l12.2,2.9l23.8,1l37.4-2.5l-3,2.5c0,0-35.4,1.8-40.8,1.8S310,341.7,310,341.7z"/>
	<path d="M510,327.8l9.5,2.2l17.5,0.5l24.4-5.6l-1.3,0.4c-8.3,4.4-17.6,6.8-27,6.8C525.2,332.2,517.3,330.8,510,327.8z"/>
	<path d="M326.3,403.7l-2,3l-0.2,5.3l6.1,7.1l-0.4-0.4c-2-1-6.9-3.6-7.3-7.8C322.1,407.7,324.8,405,326.3,403.7z"/>
	<path d="M414,420.5l15.7,2.9l30.8,1l48.3-2.5l-3.9,2.4c0,0-45.8,1.8-52.8,1.8S414,420.5,414,420.5z"/>
</g>
<g id="hair">
	
		<image style="overflow:visible;" width="408" height="372" xlink:href="66D5BCC1FE5BF425.png"  transform="matrix(1 0 0 1 181 79)">
	</image>
</g>
<g id="Layer_9">
	<polygon class="st3" points="322.2,411.1 325.6,411.4 429.8,418.7 440.8,418.7 452.5,420.9 535.7,416 495.7,411.1 428.9,411.1 	"/>
</g>
<g id="eyes">
	<circle class="st4" cx="539.5" cy="317.7" r="12.4"/>
	<path class="st4" d="M372.9,316.3c-1,13.9-12.5,29.5-29.5,29.5c-16.8,0-28.8-15.3-29.5-29.5c-0.7-14.9,11.1-25.6,16-28.5
		c3.5-2,7.2-3.6,11.1-4.8c1.6-0.6,3.2-1,4.9-1.2c5.7-0.4,10.4,3.6,13,6C362.7,291.2,374,301.3,372.9,316.3z"/>
</g>
<g id="nose">
	<path d="M493,302.7l-1.2,20.3l-2.6,24.2l1.9,17.5c-0.3,2.8-1.1,7.7-4.1,11.5c-0.4,0.6-0.9,1.1-1.5,1.6c-1,0.2-1.9,0.3-2.9,0.2
		c-2-0.3-3.9-1.1-5.5-2.5l-6.8,1l-5.4,1.4l1.3-4.5l2.8-0.6l4.6-1.6l7.2,2l3.8-1.2c0.8-1.3,1.4-2.6,1.8-4.1c1.1-3.7,0.8-6.5,0.6-9.5
		c-0.1-3.7,0.1-7.4,0.7-11c2.1-10.9,2.7-22.1,1.9-33.2c-0.4-4.8-1-9.6-1.9-14.4L493,302.7z"/>
</g>
<g id="pupil_right">
	<circle cx="539.5" cy="318" r="2.3"/>
	<animateTransform  accumulate="none" additive="replace" attributeName="transform" attributeType="XML" calcMode="linear" dur="3s" fill="remove" repeatCount="indefinite" restart="always" type="translate" values="5,0;-5;5,0">
			</animateTransform>
</g>
<g id="pupil_left">
	<circle cx="346.7" cy="313.8" r="3.2"/>
	<animateTransform  accumulate="none" additive="replace" attributeName="transform" attributeType="XML" calcMode="linear" dur="3s" fill="remove" repeatCount="indefinite" restart="always" type="translate" values="5;0;-5;5,0">
			</animateTransform>
</g>
</svg>
