<?xml version="1.0" encoding="utf-8"?>
<!-- Generator: Adobe Illustrator 21.1.0, SVG Export Plug-In . SVG Version: 6.00 Build 0)  -->
<svg version="1.1" id="Layer_1" xmlns="http://www.w3.org/2000/svg" xmlns:xlink="http://www.w3.org/1999/xlink" x="0px" y="0px"
	 viewBox="0 0 89 91" style="enable-background:new 0 0 89 91;" xml:space="preserve">
<style type="text/css">
	.st0{display:none;}
	.st1{fill:#444647;}

</style>
<title>Artboard 1</title>
<path class="st0" d="M11,8h65c2.8,0,5,2.2,5,5v64.9c0,2.8-2.2,5-5,5H11c-2.8,0-5-2.2-5-5V13C6,10.2,8.2,8,11,8z"/>
<path class="st1" d="M15.6,21.6c0.9-0.8,1.1-2,0.9-3.2c-0.4-1.2-0.6-2.4-0.6-3.7c0-1.4,0.2-3,0.5-4.5l0.2-1.2
	c0.2-1.3,0.9-2.5,1.4-2.6C18.8,6,19.5,5.9,20.4,6c0.4,0.1,2.6,1,3.8,1.4l0.2,0.1c1.2,0.5,3.2,1.4,4.5,2l1.2,0.6
	c1.5,0.6,3.1,0.8,4.7,0.6l1.2-0.2c1.6-0.2,3.3-0.5,4.9-0.6l3.7-0.2c1.6-0.1,3.3,0,4.9,0.1l5.4,0.6c1.2,0.1,2.5,0.4,3.6,0.6
	c1.1,0.1,2.3-0.2,3.3-0.8l2.6-1.4c1.4-0.7,3-1.3,4.5-1.8c1.2-0.4,2.3-0.5,3.6-0.6h1.9c0.2,0,0.9,1.1,1.4,2.3l0.4,1
	c0.5,1.3,0.7,2.8,0.9,4.2c0,1.3-0.2,2.6-0.6,3.8c-0.2,1.3,0,2.8,0.6,4l1.6,2.5c0.9,1.4,1.5,2.9,1.9,4.5L81,30
	c0.4,1.6,0.6,3.1,0.6,4.7v1.2c0,1.6-0.2,3.1-0.7,4.7l-0.5,1.7c-0.5,1.6-1.2,3-2,4.3l-2.2,3.5c-0.9,1.3-2.1,2.4-3.5,3.2l-2,1.1
	c-1.5,0.7-3,1.4-4.6,1.8l-4.3,1.2c-1.4,0.4-2.7,0.6-4.1,0.6c-0.9,0-1,0.8-0.1,1.9l0.4,0.5c0.9,1.3,1.5,2.8,1.6,4.3l0.1,7.6
	c0,1.3,0.1,3.5,0.1,4.8l0.1,2c0,1.2,0.2,2.4,0.7,3.6c0.4,0.7-0.5,1.2-1.9,1.2H35.1c-1.4,0-2.5-1.1-2.6-2.4l-0.2-6.7
	c-0.1-1.3-1.2-2.3-2.5-2.3l-1.5,0.1c-1.6,0-3.2-0.1-4.8-0.5l-1.7-0.4c-1.6-0.4-3.1-1-4.6-1.8l-0.4-0.2c-1.4-0.8-2.3-2-3.1-3.5
	l-0.1-0.2c-0.6-1.4-1.4-2.9-2.2-4.2c-0.7-1.2-1.7-2.2-2.8-3c-0.9-0.5-1.6-1.1-2.3-1.7c-0.4-0.4-0.1-1,0.4-1.2
	c0.7-0.2,1.5-0.5,2.3-0.5c0.9,0,1.7,0.2,2.6,0.6s1.6,1,2.3,1.7c0.5,0.6,1.4,1.4,2.1,2c0.7,0.6,1.4,1.3,1.9,2
	c0.4,0.6,1.1,1.4,1.5,1.9c0.9,0.7,1.9,1.2,2.8,1.4h0.6c0.9,0.1,1.6,0.4,2.3,0.7h1c1,0,2.1-0.1,3.1-0.4c0.9-0.2,1.6-0.4,2.5-0.4
	c0.6,0,1.5-1.1,1.9-2.4v-0.1c0.2-1.1,0.7-2.2,1.4-3.1c0.4-0.4,0.6-0.7,0.9-1.2c0.1-0.2-0.7-0.5-2-0.6s-3.2-0.5-4.6-0.7h-0.2
	c-1.6-0.4-3.1-1-4.6-1.7l-2.7-1c-1.4-0.8-2.7-1.8-3.8-3l-2.3-2.6c-1-1.2-1.7-2.6-2.3-4.1l-1.5-4.9C11.2,38.2,11,36.6,11,35l0.1-4.3
	c0.1-1.6,0.5-3.1,1.2-4.6l0.4-0.8C13.7,24,14.6,22.6,15.6,21.6z"/>
</svg>
