<?xml version="1.0" encoding="utf-8"?>
<!-- Generator: Adobe Illustrator 21.1.0, SVG Export Plug-In . SVG Version: 6.00 Build 0)  -->
<svg version="1.1" id="Layer_1" xmlns="http://www.w3.org/2000/svg" xmlns:xlink="http://www.w3.org/1999/xlink" x="0px" y="0px"
	 viewBox="0 0 231.5 207.8" style="enable-background:new 0 0 231.5 207.8;" xml:space="preserve">
<style type="text/css">
	.st0{fill:#C45F3B;}
	.st1{fill:none;stroke:#CC4A2B;stroke-width:0.25;stroke-miterlimit:10;}
	.st2{fill:#FFE0BD;}
	.st3{fill:#603813;}
	.st4{fill:#E5BBAC;}
	.st5{fill:#FFFFFF;}
	.st6{fill:#E5907F;}
	.st7{fill:#EFA08B;}
	.st8{fill:none;}
	.st9{fill:none;stroke:#E5BBAC;stroke-width:0.25;stroke-miterlimit:10;}
	.st10{fill:none;stroke:#F9D5C5;stroke-width:0.25;stroke-miterlimit:10;}
	.st11{fill:#070707;}
	.st12{fill:#CC4A2B;}
</style>
<title>Artboard 1</title>
<g id="Layer_2">
	<ellipse class="st0" cx="116.3" cy="103.9" rx="109.3" ry="101.9"/>
</g>
<g id="head">
	<path class="st1" d="M114.1,138c-2.4,0-4.4,0-6.8,0c-2,0-14.1-0.4-17.4,0.1"/>
	<path class="st2" d="M174.1,82c0.5,0.5,1.5,0.5,2.4,0.5c0.5-0.5,0-1.5,1-2.1c0.5-0.5,0.5,0,2-0.5c0.5,0,1.5-0.5,1.4-1.1
		c0-0.5-1-1.5-1-2.1c0-0.5,2-0.5,2-0.5s-2-1.5-1.5-2.1c0-0.5,2.4-0.5,2.4-1.1v-0.2c1,1,2,2,2.4,3.3c0.5,1,1,2.1,1.5,3.3
		c0.5,1,0.5,2.1,0,3.3c-0.5,2.1-1.9,2.1-3.3,4.4c-1,1.5-1.4,3.3-1.4,4.9c0,2.6,0,3.3-0.4,4.4c-1,1.5-2.9,2.1-4.8,2.1l0,0
		c-1.5-3.9-3-7.5-4.9-11.3l0,0c0.5,0,1-0.5,1-1.1c0-1-1-2.1-0.5-2.6C172.2,81.5,173.6,81.4,174.1,82z"/>
	<path class="st3" d="M165.9,85.9c0,0.5,0,1,0,1.5h-0.5C165.5,86.9,165.5,86.4,165.9,85.9z"/>
	<path class="st2" d="M165.6,89.1c-0.3,2.2,0.9,2.5,0.5,4.3c0,0.1,0,0.3,0.1,0.4c2.8,4.2-1.5,7.3-1.4,10.4c0,4.9-1.4,9.3-3.8,13.4
		c-2.4,4.9-10.5,14-20.2,14c-12.1,0.6-17.7-12.8-29.1-10.6c-2.9,0.5-4.8,2.1-9.7,2.2c-1.3,0-2.8-0.1-4.2-0.4c-0.5-0.1-0.5-0.9,0-1
		c1.5-0.2,2.9-0.8,4.2-1.6c0,0,0,0,0,0c2.4-1.1,4.3-3.3,6.7-3.4c2.4,0,5.3,2.5,8.6,2c0.1,0,0.1,0,0.1,0c1.8-1.1,1.3-3.8-0.1-5.4
		c-1.5-1.5-2.9-3.3-4.8-4.3c0,0-0.1-0.1-0.1-0.1c-2.9-3.3-4.3-6.9-4.4-11.2c0-3.9,0.4-8-0.1-11.8s-1.5-6.9-3-10.3
		c-3-7.5-4.3,2.6-4.8,5.4c-0.9,4.9-1.9,9.8-3.7,15.2c-1.9,5.9-4.2,11.8-6.6,17.3c0,0,0,0.1,0,0.1c-0.5,2-1.4,4.3,0,5.9
		c0.5,0.5,2,1.5,2.9,1.5h-0.5h0c-5.8,0.6-5.7,5.4-13.4,8.1c-5.8,2.1-12.6,1.6-17.7-0.4c-3.4-1.5-5.8-4.3-7.3-7.4c0,0,0,0,0,0
		c-2.9-4.8-4.9-10.2-3.5-15.2c0,0-1.6,1.8-0.5,1.5c0-3.3,0.9-5.9,2.3-9.2c0,0,0,0,0-0.1c1-1.5,1.9-3.3,3.3-4.9
		c0.5-0.5,0.9-1,1.4-1.5c0,0,0.1-0.1,0.1-0.1l0.9-0.5l0,0c4.1-3.7,6-12.1,6.2-12.9c0,0,0-0.1,0-0.1c0.4-1,0.5-2,0.5-3.6
		c0-0.1,0-0.2-0.1-0.3c-1-1.5-2.3-2.5-2.4-5.3v-0.5v0c0.5-7.4,2.8-14.2,7.1-20.1c1.9-2.6,4.3-4.8,7.1-6.9c0.1,0,0.1-0.1,0.2-0.1h0.2
		c0.1,0,0.1,0,0.2,0c3.8,2,3.8,4.3,5.7,5.3c0,0,0.1,0,0.1,0c5.8,2,14.9-6,16.9-4.5c1,0.5-1,2.6,0,3.9c1.9,2,12.5,0,19.7-4.5
		c0.1,0,0.1-0.1,0.2-0.2c3-5.7,2.8-1.5,3.3-1.5c0.5,0.5-3.3,4.4-2.9,4.9c0.5,0.5,7.8-8.1,8.6-5.4c0.9,3.1,0.6,0.4,0.5,0.8
		c-0.3,0.6-0.9,1.3-0.9,2c0,0.3,0.3,0.8,0.5,0.5c3.9-4.4,6.4-3.9,7.3-3.4c0.7,0.3-0.9,1.9-1.6,3c-0.2,0.4,0,1,0.4,0.8
		c2.1-0.6,7.1-3.8,7.9-3.3c0.5,0.5,0.2,1-2.4,3.3c-2.4,2.1,13.1,0.4,13.6,2.5c0,1,6.4-0.6,0,4.2c-0.3,0.2-0.2,0.8,0.1,0.9
		c0.5,0.2-0.3,0.3-1.8,0.6c-0.4,0.1-0.5,0.9,0,1c2.6,0.7-3.9,2-3.1,2.3c4.2,0.2,1.2,1.9,0.6,3.2c-0.1,0.3,0,0.6,0.2,0.8
		c1,0.4,2.7,0.4,3.1,0.9c0.5,0.5,3,8.2-1.4,3.3c-0.7-0.8,1.4,1.5,2.4,2c0,0,0,0,0.1,0c2.4,1,4.8-0.6,5.3,0c1,0.5,4,3-2.1,5.8
		c-0.2,0.1-0.3,0.3-0.2,0.5c0.2,1.8,1.3,3.2,1,5.3c0,0.1,0,0.2,0,0.3c2.4,6.7,3.9,10,5.7,11.1c0.1,0,0.1,0,0.2,0
		c0.2,0,0.9,0.1,1.3,0.3C165.6,88.6,165.7,88.8,165.6,89.1z M154,81.1c0-0.5-0.5-0.5-1-0.5c0,0-0.1,0-0.1,0c-0.5,0.1-0.4,1,0.1,1h0
		C153.5,81.6,154,81.1,154,81.1L154,81.1L154,81.1L154,81.1z M144.3,68.3C144.3,68.8,144.5,68.8,144.3,68.3c1.1,0.8,2,1.3,2.7,1.2
		c0.3,0,0.5-0.5,0.3-0.8c-2-3.1-4.8-6.3-9.3-6.8c0,0,0,0-0.1,0c-1.9-0.5-2.9-0.5-4.3-0.5 M147.3,82.1c0-5.4-7.3-9.2-16-9.1
		s-15.9,4.5-15.9,9.4c0,5.4,7.3,9.2,16,9.1C140.1,91.4,147.3,87,147.3,82.1L147.3,82.1z M95.5,81.5c0-5.4-6.8-9.2-16-9.1
		c-9.2,0.1-15.9,4.5-15.9,9.4c0,4.9,6.8,9.2,16,9.1C88.3,90.8,95.5,86.4,95.5,81.5z"/>
	<ellipse transform="matrix(1 -7.276575e-03 7.276575e-03 1 -0.5861 1.116)" cx="153.1" cy="81.1" rx="1" ry="0.5"/>
	<path d="M148.4,73.7c-1,0-2.4-0.5-2.9-1c-1-1-1.5-2.1-2-3.3c-2.9-5.4-8.8-5.8-14.1-6.9c-1,0-2-0.5-2.9-0.5s-2,0.5-3.4,2.1
		c-2.4,1.6-4.8,3.3-6.7,4.9c-1,0.5-2.4,1.6-2.9,2.1c-4.3,2.1-2-3.3-0.5-5.9c2.4-2.8,4.8-4.4,8.2-5.5c4.8-1.1,9.7-1.1,14-0.6
		c2,0.5,3.4,0.5,4.8,1.5C144.5,63.7,149.1,69,148.4,73.7z"/>
	<path class="st4" d="M131.2,71.4c9.2-0.1,15.5,4.5,16,9.7c0.8,7.6-8.3,12.6-17.1,11.5c-11.9-1.3-15.2-4-14.6-11.3
		C115.6,76.2,122.1,71.5,131.2,71.4z M146.5,80c0-4.1-6.8-6.8-15-6.7c-7.7,0.1-14.9,3.7-14.9,6.9c0,4.1,6.8,6.8,15,6.7
		C139.3,86.9,146.5,84.4,146.5,80z"/>
	<path class="st5" d="M131.5,73.3c8.7-0.1,15,3.7,15,7.1c0,3.8-6.7,7.2-14.9,7.3c-7.7,0.1-15-3.7-15-7.1
		C116.3,76.9,123.1,73.4,131.5,73.3z"/>
	<ellipse transform="matrix(1 -7.276575e-03 7.276575e-03 1 -0.8479 0.774)" class="st6" cx="105.9" cy="116.9" rx="0.5" ry="0.5"/>
	
		<ellipse transform="matrix(1 -7.276575e-03 7.276575e-03 1 -0.8219 0.7579)" class="st6" cx="103.7" cy="113.3" rx="0.5" ry="0.5"/>
	<ellipse transform="matrix(1 -7.276575e-03 7.276575e-03 1 -0.7904 0.7327)" class="st6" cx="100.3" cy="109" rx="1" ry="0.5"/>
	<ellipse transform="matrix(1 -7.276575e-03 7.276575e-03 1 -0.8334 0.737)" class="st6" cx="100.9" cy="114.9" rx="0.5" ry="0.5"/>
	<path class="st7" d="M100.2,117.5c0,0,0.5,0,0.5,0.5c0,0.5,0,0.5-0.5,0.5l0,0c0,0,0,0,0-0.5l0,0
		C100.2,117.5,100.2,117.5,100.2,117.5z"/>
	<path class="st6" d="M100.2,118.2L100.2,118.2c0,0.5,0,0.5-0.5,0.5c-0.5,0-0.5,0-0.5-0.5c0,0,0-0.5,0.5-0.5l0,0L100.2,118.2
		L100.2,118.2z"/>
	<path class="st6" d="M100.2,117.7L100.2,117.7L100.2,117.7z"/>
	<ellipse transform="matrix(1 -7.276575e-03 7.276575e-03 1 -0.8521 0.7213)" class="st7" cx="98.7" cy="117.5" rx="0.5" ry="0.5"/>
	<ellipse class="st6" cx="98.7" cy="120.8" rx="0" ry="0"/>
	<ellipse transform="matrix(1 -7.276575e-03 7.276575e-03 1 -0.8223 0.7155)" class="st6" cx="97.9" cy="113.4" rx="0.5" ry="0.5"/>
	<ellipse transform="matrix(1 -7.276575e-03 7.276575e-03 1 -0.8449 0.7125)" class="st6" cx="97.5" cy="116.5" rx="0.5" ry="0.5"/>
	<ellipse class="st6" cx="96.3" cy="110.6" rx="0" ry="0"/>
	<ellipse transform="matrix(1 -7.276575e-03 7.276575e-03 1 -0.7831 0.703)" class="st6" cx="96.2" cy="108" rx="0" ry="0.5"/>
	<ellipse transform="matrix(1 -7.276575e-03 7.276575e-03 1 -0.8658 0.7002)" class="st6" cx="95.8" cy="119.3" rx="0.5" ry="0.5"/>
	<path d="M95.9,67.3c0,1.5,0,2.8-1.4,3.9c-1-2.1-2.4-2.8-3.9-4.3c-1-0.5-2-2-3.4-2.6c-1,0-2-0.5-2.9-0.5c-3.4,0-7.2,0-10.6,0.1
		c-1,0-2.4,0-2.9,0.5c-2.4,0.5-3.4,3.9-4.8,5.9c-0.5,0.5-1,2.6-2.4,2.6c-1,0,0-2.8,0-3.9c1-2.6,2.9-4.9,4.8-7c1-0.5,2.4-2.1,3.4-2.6
		c1.5-0.5,2.4-0.5,3.9-0.5c2.9,0,6.8,0,10.1-0.1c2.9,0.5,6.3,2,8.7,4.3C94.7,65,95.4,66.5,95.9,67.3z"/>
	<ellipse transform="matrix(1 -7.276575e-03 7.276575e-03 1 -0.8338 0.6947)" class="st6" cx="95" cy="114.9" rx="0.5" ry="0.5"/>
	<ellipse transform="matrix(1 -7.276575e-03 7.276575e-03 1 -0.8095 0.6946)" class="st6" cx="95" cy="111.6" rx="0" ry="0.5"/>
	<ellipse transform="matrix(1 -7.276575e-03 7.276575e-03 1 -0.7946 0.6873)" class="st7" cx="94.1" cy="109.5" rx="0.5" ry="0.5"/>
	<ellipse transform="matrix(1 -7.276575e-03 7.276575e-03 1 -0.8731 0.6881)" class="st6" cx="94.1" cy="120.3" rx="0.5" ry="0.5"/>
	<path class="st7" d="M94.6,121.4c-0.5,0-0.5,0-1,0C94.1,121.4,94.1,121.4,94.6,121.4z"/>
	<ellipse transform="matrix(1 -7.276575e-03 7.276575e-03 1 -0.8132 0.6822)" class="st7" cx="93.3" cy="112.1" rx="0.5" ry="0.5"/>
	<ellipse transform="matrix(1 -7.276575e-03 7.276575e-03 1 -0.8545 0.6826)" class="st6" cx="93.4" cy="117.8" rx="0.5" ry="0.5"/>
	<path class="st7" d="M91.7,115.5c0,0,0.5,0,0.5,0.5l0,0l0,0c0,0.5-0.5,0.5-1,0.5c-0.5,0-1,0-1-0.5
		C90.7,115.5,91.2,115.5,91.7,115.5C91.2,115.5,91.2,115.5,91.7,115.5c-0.5,0.5,0,0.5,0,0.5S92.9,116,91.7,115.5
		C92.9,115.5,92.9,115.5,91.7,115.5z"/>
	<ellipse transform="matrix(1 -7.276575e-03 7.276575e-03 1 -0.8301 0.6789)" class="st7" cx="92.9" cy="114.4" rx="0.5" ry="0.5"/>
	<ellipse transform="matrix(1 -7.276575e-03 7.276575e-03 1 -0.8659 0.6793)" class="st7" cx="92.9" cy="119.3" rx="0.5" ry="0.5"/>
	<ellipse transform="matrix(1 -7.276575e-03 7.276575e-03 1 -0.849 0.6792)" class="st7" cx="92.9" cy="117" rx="0" ry="0.5"/>
	<path class="st6" d="M91.7,115.5C92.9,115.5,92.9,115.5,91.7,115.5c0,0.5,0,0.5,0,0.5s-0.5,0-0.5-0.5
		C91.2,115.5,91.2,115.5,91.7,115.5z"/>
	<ellipse transform="matrix(1 -7.276575e-03 7.276575e-03 1 -0.8545 0.6632)" class="st6" cx="90.7" cy="117.8" rx="0.5" ry="0.5"/>
	<path class="st8" d="M77.3,39.9c1.5,0,2.4,0.5,3.9,0c0,0-1-0.5-2-1.5c-0.5,0-1-0.5-2-0.5c-4.8-0.5-9.2,2.2-9.7,1.6
		c-0.5-0.5,5.8-3.9,5.3-5.4c-0.5-1.5-9.2,0.1-9.2-0.4s23.2-5.6,22.6-7.6c0-0.5-1-0.5-2.4-1.5c-1.5-0.5-2-1-2-1c3.9,1,7.2,2,11.6,2.5
		c2.9,0,6.8,0,6.8-0.5c0-0.5-7.2-1.5-7.2-2.5c0-1.5,21.7-1.7,26.1-1.2c1.5,0,2.4,0.5,3.9,0.5l4.4,0c1.5,0,2-0.5,2.9-0.5
		c0.5,0,1.5,0,2,0.5l4.8,1.5c4.8,1.5,5.3,0.5,9.2,2c2.9,1.5,4.4,3.3,5.8,2.5c1-0.5,1.4-1.1,2-1.1c1,0,1.5,1.5,2.4,1.5
		c1,0,1.9-1.5,2.4-1.6c0.5,0,0.5,1.5,2,3.3c0.5,1,2,2,3.4,2c7.3,5.4,12.7,12.8,14.2,21c0.5,6.9-2.3,12.4,1.6,15.7c0,0,2,1.5,2,2"/>
	<path class="st9" d="M131.2,71.4c8.8-0.1,16,4,16,9.2s-7.1,9.3-15.9,9.4s-16-4-16-9.2S122.4,71.5,131.2,71.4z"/>
	<path class="st10" d="M118.5,109.4c4.8,2,9.2,4.8,12.6,8.4c3.4,3.3,5.4,7.4,5.4,12.3"/>
	<path class="st10" d="M88.3,110.1c-6.7,4.4-12,10.9-14.1,17.9"/>
	<path class="st10" d="M65.2,92c2,1.5,4.4,2.6,6.8,3.3c2,0.5,3.9,0.5,5.8,1c2.9,0,5.8,0,8.7-0.5c2.4-0.5,5.3-1.6,7.2-3.4"/>
	<path class="st10" d="M115,91.1c3.4,3.3,7.3,4.8,12.6,5.3c4.4,0.5,9.7-0.1,13.5-1.6"/>
	<path class="st3" d="M173.7,91.5L173.7,91.5c-2,1.1-3.4,1.1-5.8,1.1l0,0c0-0.5,0-1,0-2.1c0,0.5,0,1,0,2.1l0,0c-1,0-2.4,0-2.9-0.5
		c-2-0.5-2.9-4.3-6.4-12.3c-1-2.1-1.5-3.9-1-6.5c-5.6-1.5,2.9-5.9,2.4-6.5c-0.5-0.5-2.9,1.1-5.8,0c-1-0.5-2-1-2.4-2.6
		c0-2.1,1.9-2.6,1.4-3.3c-0.5-1-2.4,0-3.4-1c-1-0.5-0.5-2.6-0.5-3.9c0-1,0-2.1,0.5-2.8c0-0.5,0.5-1.1,0.5-2.1c1-2.8,4.8-3.9,4.3-5.4
		c-0.5-2.1-18.4-0.9-14.1-2.7c-1.2,1.1,2.4-2.8,2.4-3.3c0,0-7.7,4.4-8.7,3.4c-1-0.5,2.4-3.9,1.9-3.9c-0.5-0.5-7.2,3.9-8.2,3.4
		c-1-0.5,1.4-2.8,1-3.3c-1-0.5-8.7,6-9.1,6c-0.5-0.5,3.3-4.4,2.9-5.4c-0.5-1-2.4,1.1-3.4,2.1c-7.7,4.5-18.3,7.1-20.5,4.5
		c-1-1,1-3.3,0-3.9c-2-2-10.6,7-17.4,4.5c-2-0.5-2-3.3-6.4-5.9c0,0,0,0-0.5,0c0.5-0.5,1-0.5,1.4-1.1l0,0c1.5,0,2.4,0.5,4.4,0
		c0,0-1-0.5-2-2c-0.5,0-1-0.5-2-0.5c-5.3-0.5-9.2,2.6-9.7,2.2c-0.5-0.5,6.3-3.9,5.7-5.9c-0.5-2.1-9.2,0.1-9.2-0.4s23.9-6.1,23.6-8.2
		c0-0.5-1-0.5-2.4-2c-1.5-0.5-2-1-2-1c4.4,1,7.8,2.5,11.6,2.8c2.9,0,7.2,0,7.2-0.5c0-0.5-7.7-2-7.8-2.8c0-2.1,22.7-2.2,26.6-1.2
		c1.5,0,2.4,0.5,4.4,0.5l4.8,0c1.5,0,2-0.5,2.9-0.5c0.5,0,1.5,0,2,0.5l5.3,2c5.3,2,5.8,0.5,9.2,2.5c2.9,2,4.9,3.3,6.3,2.8
		c1-0.5,1.4-1.1,2-1.1c1,0,1.5,2.1,2.4,2c1,0,1.9-2.1,2.4-2.1c0.5,0,0.5,2.1,2,3.3c0.5,1,2,2.6,3.4,2.6c7.8,5.8,13.2,13.8,14.4,22.6
		c0.5,7.5-2.3,13.4,1.6,16.7c0,0,2,2,2,2.6l0,0v0.5c-0.5,0.5-2.4,0.5-2.4,1.1c0,0.5,2,2,1.5,2.6c-0.5,0.5-1.5,0-2,0.5
		c-0.5,0.5,1,2.1,1,2.6c0,0.5-1,0.5-1.4,1.1c-0.5,0.5-1.5,0-2,0.5c-1,0.5-0.5,2.1-1,2.6c-0.5,0.5-1.5,0-2.4-0.5
		c-1-0.5-1.5-0.5-1.5,0c0,0.5,1,2.1,0.5,2.8C174.6,90.5,174.2,90.5,173.7,91.5z"/>
	<path class="st5" d="M79.5,72.3c9.2-0.1,15.8,4,15.8,7.8c0,4.1-7.1,8-15.7,8c-8.1,0.1-15.8-4-15.8-7.8
		C63.7,76.2,70.8,72.3,79.5,72.3z"/>
	
		<ellipse id="eye_1" transform="matrix(1 -7.276575e-03 7.276575e-03 1 -0.5774 0.5716)" class="st11" cx="78.3" cy="79.6" rx="2.5" ry="2.3"/>
	<path class="st9" d="M80,72.8c8.8-0.1,16,4,16,9.2c0,5.1-7.1,9.3-15.9,9.4s-16-4-16-9.2C64.1,77.1,71.2,72.9,80,72.8z"/>
	
		<ellipse id="eye_2" transform="matrix(1 -7.276575e-03 7.276575e-03 1 -0.5857 0.9523)" class="st11" cx="130.6" cy="81" rx="2.4" ry="2.2"/>
	<path class="st4" d="M79.4,71c9.5-0.1,16,4.7,16.5,10.2c0.8,8.1-8.7,13.3-17.6,12.2c-12.2-1.4-15.8-4.2-15-11.9
		C63.5,76,70,71.1,79.4,71z M95,78.8c-1.5-3.1-6.5-5.8-15-5.8c-8,0.1-15.4,3.8-15.4,7.3c0,4.3,7.1,7.1,15.5,7.1
		C88.1,87.3,96.7,82.5,95,78.8z"/>
	<path class="st3" d="M49.5,106.9L49.5,106.9c0-0.5,0-1,0.5-1.5c-0.4,5.4,0.5,10.8,3.5,15.2c1.5,3.3,4.4,5.9,7.3,7.4
		c5.4,2.5,12.1,3.2,17.7,0.4c7.2-2.6,7.2-8,13.5-8.1h2c0.5,0,0.5,0,1,0c2.4,1,5.3,1.5,7.7,1.5c4.4,0,6.3-1.6,9.7-2.2
		c11.1-2.2,17,10.7,29.1,10.6c10.1-0.6,17.4-9.4,20.2-14c2.4-4.4,3.3-9.3,3.8-13.4c0-3.9,0-4.4-0.1-8c0-2.6,0.4-4.9,0.9-7.5h0.5
		c2,0,3.9-0.5,5.3-1.6c2,3.9,3.4,7.4,4.9,11.3l0,0c4.4,13.3,6.5,33.4-3.5,51.5c-10.5,18.4-35.5,40.4-67.9,37.2
		c-36.6-3.1-53.2-36.2-53.7-38C46.8,133.5,46,119.5,49.5,106.9z"/>
	<path class="st7" d="M119,113.3c1.5,2.1,1.5,3.9,0,6c-2.9,0.5-6.4-2.6-9.4-2.6c-3.4,0-5.4,2.7-7.8,3.4c-2.9,2.1-6.4,2.1-8.8,2.2
		c-0.5,0-0.5,0-1,0l0,0c-1,0-2.5-0.5-3.4-2c-1.5-2.1-0.5-3.9,0-6.5c2.9-6.5,5.3-12.6,7.7-19.1c1.4-5.5,3.4-10.5,4.3-16.5
		c0.5-2.9,2.4-14.1,5.4-6c1.5,3.4,3,7.5,3.5,10.9c0.5,3.9,0.1,8.9,0.1,13.1c0,3.9,1.5,8.9,5,12.5C115.6,109.9,116.8,112,119,113.3z
		 M105.1,117.1C105.1,116.5,104.6,116.5,105.1,117.1c-0.5-0.5-1,0-1,0S104.1,117.1,105.1,117.1L105.1,117.1
		C104.6,117.1,105.1,117.1,105.1,117.1L105.1,117.1z M103.3,112.9c0,0,0-0.5-0.5-0.5c-0.5,0-0.5,0-0.5,0.5c0,0,0,0.5,0.5,0.5
		C103.3,113.4,103.3,112.9,103.3,112.9L103.3,112.9z M99.8,108.5c0-0.5-0.5-0.5-1-0.5c-0.5,0-1,0.5-1,0.5c0,0.5,0.5,0.5,1,0.5
		C99.3,109,99.8,109,99.8,108.5L99.8,108.5z M99.9,115c0-0.5,0-0.5-0.5-0.5s-0.5,0-0.5,0.5s0,0.5,0.5,0.5l0,0L99.9,115L99.9,115z
		 M98.9,118.4c0-0.5,0-0.5-0.5-0.5s-0.5,0-0.5,0.5l0,0l0,0c-0.5,0-0.5,0-0.5,0.5s0,0.5,0.5,0.5c0.5,0,0.5,0,0.5-0.5l0,0l0,0l0,0
		C98.9,118.9,98.9,118.4,98.9,118.4L98.9,118.4z M96.9,118.2C96.9,118.2,96.4,117.1,96.9,118.2c-0.5-0.5-1,0-1,0
		S96.4,118.4,96.9,118.2L96.9,118.2C96.4,118.4,96.9,118.2,96.9,118.2L96.9,118.2z M96.5,121.6L96.5,121.6
		C96.5,120.5,96.5,120.5,96.5,121.6L96.5,121.6L96.5,121.6C96,121.6,96.5,121.6,96.5,121.6L96.5,121.6L96.5,121.6z M96.4,113
		C96.4,113,96.4,112.7,96.4,113c-0.5-0.5-1,0-1,0S95.9,113.5,96.4,113L96.4,113L96.4,113L96.4,113z M95.9,116.6
		C95.9,116.1,95.9,116.1,95.9,116.6c-0.5-0.5-1,0-1,0S95.2,117.1,95.9,116.6L95.9,116.6L95.9,116.6L95.9,116.6z M93.4,110.1
		L93.4,110.1C93.4,109.6,93.4,109.6,93.4,110.1L93.4,110.1L93.4,110.1C93.4,109.6,93.4,110.1,93.4,110.1L93.4,110.1z M93.4,107.3
		c0-0.5,0-0.5,0-0.5S92.9,106.7,93.4,107.3c-0.5,0.5-0.5,0.5,0,0.5C94.2,108,93.4,108,93.4,107.3L93.4,107.3z M93.5,119.5
		L93.5,119.5c-0.5-0.5-1,0-1,0C92.5,120,93,120,93.5,119.5L93.5,119.5C93.5,120,93.5,120,93.5,119.5L93.5,119.5z M93,115.1
		C93,115.1,93,114.6,93,115.1c-0.5-0.5-1,0-1,0C91.7,115.6,92.5,115.6,93,115.1L93,115.1C93,115.6,93,115.6,93,115.1L93,115.1z
		 M93,111.7h-0.5c-0.5,0-0.5,0-0.5,0h0.5C93,111.7,93,111.7,93,111.7L93,111.7z M91.7,109.1c0,0,0-0.5-0.5-0.5l0,0l0,0
		c-0.5,0-0.5,0-0.5,0.5s0,0.5,0.5,0.5C91.7,109.6,91.7,109.1,91.7,109.1z M91.8,120.6c0,0,0-0.5-0.5-0.5l0,0l0,0
		c-0.5,0-0.5,0-0.5,0.5s0,0.5,0.5,0.5C91.8,121.6,91.8,120.6,91.8,120.6z M90.8,112.2C90.8,112.2,90.5,112.2,90.8,112.2
		c-0.5-0.5-1,0-1,0C89.5,112.7,89.5,112.7,90.8,112.2L90.8,112.2C90.5,112.7,90.8,112.7,90.8,112.2L90.8,112.2z M90.8,118.4
		C90.8,118.4,90.5,118.2,90.8,118.4c-0.5-0.5-1,0-1,0S89.5,119,90.8,118.4L90.8,118.4C90.5,119,90.8,118.4,90.8,118.4L90.8,118.4z
		 M90.5,116.1c0-0.5,0-0.5-0.5-0.5l0,0c0,0-0.5,0-0.5,0.5l0,0l0,0c0,0.5,0.5,0.5,1,0.5L90.5,116.1L90.5,116.1L90.5,116.1z
		 M90.5,114.6C90.5,114.6,89.5,114.6,90.5,114.6c-0.5-0.5-1,0-1,0C89,115.1,89,115.1,90.5,114.6L90.5,114.6
		C90.5,115.1,90.5,115.1,90.5,114.6L90.5,114.6z M90.5,119.5C90.5,119.5,89.6,119.5,90.5,119.5c-0.5-0.5-1,0-1,0
		C89.1,120.1,89.1,120.1,90.5,119.5L90.5,119.5C90.5,120.1,90.5,120.1,90.5,119.5L90.5,119.5z M90.5,117.2H90c-0.5,0-0.5,0-0.5,0
		S89.5,117.2,90.5,117.2L90.5,117.2z M88.3,118.5C88.3,118.5,88.3,118.2,88.3,118.5c-0.5-0.5-1,0-1,0S87.8,119,88.3,118.5
		L88.3,118.5C88.3,119,88.3,118.5,88.3,118.5L88.3,118.5z"/>
	<path class="st12" d="M113.1,135.4c1.5,0,8.7,0.4,9.7-0.1c-2.4,1.6-5.3,2.6-8.7,2.6c-9.7,0.6-20.5,1.2-30-1.3
		c0-1.5,15.9-0.6,18.3-0.6C106.6,135.4,110,135.4,113.1,135.4z"/>
</g>
</svg>
