<svg id="Layer_1" data-name="Layer 1" xmlns="http://www.w3.org/2000/svg" viewBox="0 0 78 76"><defs><style>.cls-1{fill:#797979;}.cls-10,.cls-11,.cls-2,.cls-9{fill:none;}.cls-2{stroke:#6e6e6e;}.cls-10,.cls-11,.cls-2{stroke-miterlimit:10;stroke-width:0.25px;}.cls-3{fill:#e5e5e5;}.cls-4{fill:#404040;}.cls-5{fill:#c6c6c6;}.cls-6{fill:#fff;}.cls-7{fill:#a8a8a8;}.cls-8{fill:#b5b5b5;}.cls-10{stroke:#c6c6c6;}.cls-11{stroke:#dedede;}.cls-12{fill:#070707;}.cls-13{fill:#6e6e6e;}</style></defs><title>Artboard 1</title><g id="Layer_2" data-name="Layer 2"><ellipse class="cls-1" cx="39.5" cy="37" rx="37.5" ry="36"/></g><g id="head"><path class="cls-2" d="M38.73,49H36.41c-.67,0-4.82-.14-6,0"/><path class="cls-3" d="M59.33,29.23c.16.18.5.17.83.17.16-.18,0-.54.33-.74.16-.18.16,0,.67-.18.16,0,.5-.18.49-.37s-.34-.54-.34-.74.67-.18.67-.18-.67-.54-.5-.74c0-.18.83-.18.83-.37V26a3.72,3.72,0,0,1,.84,1.17c.16.36.34.74.5,1.17a1.52,1.52,0,0,1,0,1.18c-.16.74-.66.74-1.14,1.56A3.45,3.45,0,0,0,62,32.82a3.42,3.42,0,0,1-.15,1.54,1.89,1.89,0,0,1-1.66.75h0a40.11,40.11,0,0,0-1.68-4h0a.38.38,0,0,0,.33-.37c0-.36-.34-.74-.17-.9C58.66,29.06,59.16,29.05,59.33,29.23Z"/><path class="cls-4" d="M56.52,30.62v.54h-.16A.74.74,0,0,1,56.52,30.62Z"/><path class="cls-3" d="M56.42,31.74c-.1.77.29.89.18,1.52a.19.19,0,0,0,0,.16c1,1.47-.5,2.59-.49,3.67a9.39,9.39,0,0,1-1.29,4.74c-.82,1.74-3.62,4.93-6.93,5C43.79,47,41.85,42.27,38,43c-1,.18-1.66.75-3.31.76a6.82,6.82,0,0,1-1.45-.16c-.16,0-.16-.33,0-.35a3.61,3.61,0,0,0,1.44-.58,0,0,0,0,0,0,0c.83-.37,1.47-1.18,2.3-1.19s1.81.88,3,.71h0c.63-.39.45-1.35,0-1.89a7,7,0,0,0-1.64-1.52s0,0,0,0a6,6,0,0,1-1.5-4,36.91,36.91,0,0,0,0-4.18,12.64,12.64,0,0,0-1-3.63c-1-2.64-1.49.92-1.64,1.92a37.75,37.75,0,0,1-1.28,5.37c-.66,2.09-1.45,4.18-2.26,6.1,0,0,0,0,0,0-.17.72-.47,1.53,0,2.07a1.83,1.83,0,0,0,1,.54h-.17c-2,.21-2,1.92-4.61,2.86a8.64,8.64,0,0,1-6.06-.13,5.19,5.19,0,0,1-2.5-2.62,0,0,0,0,0,0,0c-1-1.71-1.68-3.62-1.19-5.35,0,0-.54.64-.16.54A7.87,7.87,0,0,1,17.6,35s0,0,0,0a10.07,10.07,0,0,1,1.14-1.72l.47-.53,0,0,.32-.17h0C21,31.24,21.65,28.27,21.7,28c0,0,0,0,0,0a3.15,3.15,0,0,0,.16-1.28.17.17,0,0,0,0-.11A2.89,2.89,0,0,1,21,24.72v-.18h0a13.54,13.54,0,0,1,2.44-7.1A11.35,11.35,0,0,1,25.89,15L26,15h.15c1.3.71,1.31,1.51,2,1.87h0c2,.7,5.11-2.13,5.78-1.59.33.17-.33.92,0,1.36.66.71,4.29,0,6.76-1.58,0,0,0,0,.06-.06,1-2,1-.52,1.13-.52.16.18-1.14,1.56-1,1.74s2.69-2.85,2.93-1.92c.29,1.09.22.13.16.28a1.67,1.67,0,0,0-.29.71c0,.11.1.27.16.19,1.33-1.56,2.2-1.36,2.51-1.21s-.29.69-.54,1c-.09.13,0,.34.15.29.71-.22,2.44-1.33,2.72-1.18s.09.36-.82,1.18,4.48.14,4.65.88c0,.35,2.2-.23,0,1.48a.2.2,0,0,0,0,.33c.18.07-.11.12-.61.23-.15,0-.16.31,0,.35.88.24-1.34.71-1.06.8,1.42.06.41.69.19,1.15a.19.19,0,0,0,.09.27c.35.13.91.14,1,.31s1,2.91-.49,1.18a7,7,0,0,0,.83.71h0c.83.35,1.64-.21,1.81,0,.33.17,1.38,1-.72,2.05a.18.18,0,0,0-.09.19c.06.64.46,1.15.34,1.88a.17.17,0,0,0,0,.11c.83,2.38,1.33,3.55,2,3.92h.06a1.26,1.26,0,0,1,.45.1A.34.34,0,0,1,56.42,31.74Zm-4-2.81c0-.18-.16-.18-.33-.17h0c-.17,0-.15.35,0,.35h0a.67.67,0,0,0,.32-.18ZM49.09,24.4c0,.18.09.18,0,0a1.57,1.57,0,0,0,.94.42c.11,0,.17-.18.1-.29a4.37,4.37,0,0,0-3.2-2.39h0A5,5,0,0,0,45.42,22m4.71,7.32c0-1.91-2.51-3.26-5.49-3.23s-5.45,1.58-5.44,3.32c0,1.91,2.51,3.26,5.49,3.23s5.45-1.58,5.44-3.32Zm-17.76-.23c0-1.91-2.35-3.26-5.49-3.23s-5.45,1.58-5.44,3.32,2.35,3.26,5.49,3.23C29.91,32.34,32.38,30.79,32.37,29.06Z"/><ellipse cx="52.12" cy="28.93" rx="0.33" ry="0.18" transform="translate(-0.2 0.37) rotate(-0.4)"/><path d="M50.52,26.3a1.64,1.64,0,0,1-1-.36,3.33,3.33,0,0,1-.67-1.17c-1-1.91-3-2.06-4.83-2.42-.33,0-.67-.17-1-.17s-.67.18-1.16.74a26.67,26.67,0,0,0-2.31,1.75,5.45,5.45,0,0,0-1,.74c-1.49.75-.67-1.17-.17-2.09a5.56,5.56,0,0,1,2.8-1.93A14.21,14.21,0,0,1,46,21.18a4.31,4.31,0,0,1,1.66.53C49.17,22.77,50.75,24.65,50.52,26.3Z"/><path class="cls-5" d="M44.63,25.52c3.15,0,5.31,1.59,5.49,3.43.27,2.69-2.86,4.45-5.86,4.08-4.07-.46-5.22-1.41-5-4C39.24,27.18,41.47,25.54,44.63,25.52Zm5.24,3c0-1.45-2.34-2.39-5.15-2.36-2.65,0-5.13,1.29-5.13,2.44,0,1.45,2.34,2.39,5.15,2.36C47.39,31,49.87,30.1,49.86,28.56Z"/><path class="cls-6" d="M44.72,26.18c3,0,5.15,1.29,5.15,2.51s-2.3,2.56-5.13,2.58c-2.65,0-5.15-1.29-5.15-2.51S41.83,26.21,44.72,26.18Z"/><ellipse class="cls-7" cx="35.95" cy="41.58" rx="0.16" ry="0.18" transform="translate(-0.29 0.26) rotate(-0.4)"/><ellipse class="cls-7" cx="35.19" cy="40.32" rx="0.16" ry="0.18" transform="translate(-0.28 0.25) rotate(-0.4)"/><ellipse class="cls-7" cx="34.01" cy="38.79" rx="0.33" ry="0.18" transform="translate(-0.27 0.24) rotate(-0.4)"/><ellipse class="cls-7" cx="34.21" cy="40.87" rx="0.16" ry="0.18" transform="translate(-0.29 0.24) rotate(-0.4)"/><path class="cls-8" d="M34,41.78a.16.16,0,0,1,.16.18c0,.18,0,.18-.16.18h0V42h0Z"/><path class="cls-7" d="M34,42.05h0c0,.18,0,.18-.16.18s-.16,0-.16-.18c0,0,0-.18.16-.18h0l.16.18Z"/><ellipse class="cls-8" cx="33.46" cy="41.78" rx="0.16" ry="0.18" transform="translate(-0.29 0.24) rotate(-0.4)"/><ellipse class="cls-7" cx="33.19" cy="40.33" rx="0.16" ry="0.18" transform="translate(-0.28 0.24) rotate(-0.4)"/><ellipse class="cls-7" cx="33.05" cy="41.43" rx="0.16" ry="0.18" transform="translate(-0.29 0.23) rotate(-0.4)"/><ellipse class="cls-7" cx="32.61" cy="38.42" ry="0.18" transform="translate(-0.27 0.23) rotate(-0.4)"/><ellipse class="cls-7" cx="32.46" cy="42.44" rx="0.16" ry="0.18" transform="translate(-0.3 0.23) rotate(-0.4)"/><path d="M32.51,24.06c0,.54,0,1-.49,1.37-.34-.74-.84-1-1.34-1.53-.33-.17-.67-.72-1.17-.9-.33,0-.67-.17-1-.17l-3.65,0c-.33,0-.83,0-1,.18-.83.18-1.16,1.37-1.64,2.1-.16.18-.33.92-.82.92-.33,0,0-1,0-1.36A7.74,7.74,0,0,1,23,22.23c.33-.18.83-.74,1.16-.92a3.37,3.37,0,0,1,1.33-.18l3.48,0a6,6,0,0,1,3,1.52A3.74,3.74,0,0,0,32.51,24.06Z"/><ellipse class="cls-7" cx="32.21" cy="40.88" rx="0.16" ry="0.18" transform="translate(-0.29 0.23) rotate(-0.4)"/><ellipse class="cls-7" cx="32.21" cy="39.7" ry="0.18" transform="translate(-0.28 0.23) rotate(-0.4)"/><ellipse class="cls-8" cx="31.87" cy="38.98" rx="0.16" ry="0.18" transform="translate(-0.27 0.23) rotate(-0.4)"/><ellipse class="cls-7" cx="31.89" cy="42.79" rx="0.16" ry="0.18" transform="translate(-0.3 0.23) rotate(-0.4)"/><ellipse class="cls-8" cx="31.62" cy="39.88" rx="0.16" ry="0.18" transform="translate(-0.28 0.22) rotate(-0.4)"/><ellipse class="cls-7" cx="31.64" cy="41.89" rx="0.16" ry="0.18" transform="translate(-0.3 0.22) rotate(-0.4)"/><path class="cls-8" d="M31.05,41.08a.16.16,0,0,1,.16.18h0c0,.18-.16.18-.33.18s-.33,0-.33-.17a.56.56,0,0,1,.5-.19h0c-.16.18,0,.18,0,.18s.41,0,0-.18Z"/><ellipse class="cls-8" cx="31.47" cy="40.7" rx="0.16" ry="0.18" transform="translate(-0.29 0.22) rotate(-0.4)"/><ellipse class="cls-8" cx="31.48" cy="42.44" rx="0.16" ry="0.18" transform="translate(-0.3 0.22) rotate(-0.4)"/><ellipse class="cls-8" cx="31.48" cy="41.62" ry="0.18" transform="translate(-0.29 0.22) rotate(-0.4)"/><path class="cls-7" d="M31.05,41.08h0v.18a.16.16,0,0,1-.16-.18Z"/><ellipse class="cls-7" cx="30.72" cy="41.89" rx="0.16" ry="0.18" transform="translate(-0.3 0.22) rotate(-0.4)"/><path class="cls-9" d="M26.13,14.37c.5,0,.83.17,1.33,0a2.67,2.67,0,0,1-.67-.54c-.16,0-.33-.17-.67-.17-1.66-.17-3.14.76-3.31.57s2-1.37,1.81-1.92-3.15,0-3.15-.16,8-2,7.77-2.7c0-.18-.33-.17-.83-.54a1.63,1.63,0,0,1-.67-.36,24.64,24.64,0,0,0,4,.88c1,0,2.33,0,2.33-.19s-2.48-.53-2.48-.89c0-.54,7.45-.59,8.95-.43.5,0,.83.17,1.33.17h1.5c.5,0,.67-.18,1-.18A1,1,0,0,1,45,8l1.66.53c1.66.53,1.83.17,3.15.71,1,.54,1.5,1.17,2,.89.33-.18.49-.37.67-.37s.5.54.83.54.66-.54.83-.55.17.54.67,1.17a1.38,1.38,0,0,0,1.17.72,12.34,12.34,0,0,1,4.87,7.43c.18,2.45-.79,4.37.54,5.55,0,0,.67.54.67.72"/><ellipse class="cls-10" cx="44.64" cy="28.79" rx="5.47" ry="3.28" transform="translate(-0.2 0.32) rotate(-0.4)"/><path class="cls-11" d="M40.24,38.92a13,13,0,0,1,4.33,3,6.07,6.07,0,0,1,1.86,4.35"/><path class="cls-11" d="M29.88,39.17A12,12,0,0,0,25,45.48"/><path class="cls-11" d="M22,32.77a6.89,6.89,0,0,0,2.33,1.16c.67.17,1.33.17,2,.35a17.71,17.71,0,0,0,3-.19,5.2,5.2,0,0,0,2.47-1.19"/><path class="cls-11" d="M39,32.48a6.49,6.49,0,0,0,4.32,1.88A10,10,0,0,0,48,33.78"/><path class="cls-4" d="M59.19,32.6h0a3.6,3.6,0,0,1-2,.39h0v0h0c-.33,0-.83,0-1-.17-.67-.17-1-1.53-2.19-4.35a3.58,3.58,0,0,1-.35-2.28c-1.91-.53,1-2.1.82-2.28s-1,.37-2,0a1.43,1.43,0,0,1-.84-.9c0-.74.66-.92.49-1.18s-.83,0-1.17-.36c-.33-.17-.17-.9-.17-1.36a2,2,0,0,1,.16-1c0-.18.16-.37.16-.74.33-1,1.64-1.37,1.49-1.92-.17-.74-6.31-.33-4.82-1-.41.37.82-1,.82-1.18,0,0-2.64,1.56-3,1.19-.33-.17.82-1.37.66-1.37-.16-.18-2.47,1.39-2.81,1.19s.49-1,.33-1.18c-.33-.17-3,2.11-3.13,2.11-.16-.18,1.14-1.56,1-1.92s-.83.37-1.16.74c-2.63,1.58-6.28,2.51-7,1.6-.34-.36.33-1.18,0-1.36-.67-.72-3.64,2.48-6,1.58-.67-.17-.67-1.17-2.18-2.07h-.16c.16-.18.33-.18.49-.37h0a4.17,4.17,0,0,0,1.5,0,2,2,0,0,1-.67-.72c-.16,0-.33-.17-.67-.17-1.83-.17-3.14.93-3.31.76s2.16-1.37,2-2.1-3.15,0-3.15-.16,8.19-2.15,8.11-2.88c0-.18-.33-.17-.83-.72a1.63,1.63,0,0,1-.67-.36,24.79,24.79,0,0,0,4,1,7.74,7.74,0,0,0,2.48-.19c0-.18-2.65-.71-2.67-1,0-.74,7.79-.78,9.12-.43.5,0,.83.17,1.5.17H44c.5,0,.67-.18,1-.18a1,1,0,0,1,.67.17l1.83.72c1.83.72,2,.17,3.15.89,1,.72,1.67,1.17,2.17,1,.33-.18.49-.37.67-.37s.5.74.83.72.66-.74.83-.74.17.74.67,1.17a1.56,1.56,0,0,0,1.17.9,12.49,12.49,0,0,1,5,8c.18,2.64-.79,4.74.54,5.9,0,0,.67.72.67.9h0v.18c-.16.18-.83.18-.83.37s.67.72.5.9-.5,0-.67.18.34.74.34.9-.33.18-.49.37-.5,0-.67.18c-.33.18-.16.74-.33.92s-.5,0-.83-.17-.5-.17-.5,0,.34.74.17,1A6,6,0,0,1,59.19,32.6Z"/><path class="cls-6" d="M26.86,25.81c3.14,0,5.41,1.41,5.42,2.76s-2.42,2.81-5.38,2.83c-2.79,0-5.41-1.41-5.42-2.76S23.9,25.82,26.86,25.81Z"/><ellipse id="eye_1" data-name="eye 1" class="cls-12" cx="26.45" cy="28.41" rx="0.85" ry="0.81" transform="translate(-0.2 0.19) rotate(-0.4)"/><ellipse class="cls-10" cx="27.07" cy="29.28" rx="5.47" ry="3.28" transform="translate(-0.21 0.19) rotate(-0.4)"/><ellipse id="eye_2" data-name="eye 2" class="cls-12" cx="44.4" cy="28.88" rx="0.83" ry="0.77" transform="translate(-0.2 0.31) rotate(-0.4)"/><path class="cls-5" d="M26.85,25.36c3.26,0,5.49,1.68,5.67,3.62.27,2.85-3,4.69-6.05,4.31-4.2-.48-5.41-1.48-5.16-4.22C21.38,27.12,23.6,25.39,26.85,25.36Zm5.34,2.75C31.7,27,30,26,27,26.07c-2.74,0-5.3,1.35-5.3,2.58,0,1.52,2.42,2.52,5.33,2.51C29.81,31.11,32.78,29.41,32.19,28.11Z"/><path class="cls-4" d="M16.59,38h0a.73.73,0,0,1,.16-.54,8.51,8.51,0,0,0,1.19,5.35,5.78,5.78,0,0,0,2.5,2.63,6.79,6.79,0,0,0,6.06.13c2.47-.93,2.46-2.83,4.63-2.86h1a7,7,0,0,0,2.65.53c1.5,0,2.16-.55,3.31-.76,3.81-.76,5.83,3.77,10,3.75,3.48-.21,6-3.32,6.93-5a13.23,13.23,0,0,0,1.29-4.74c0-1.36,0-1.54,0-2.82a12.94,12.94,0,0,1,.32-2.64h.16a3.06,3.06,0,0,0,1.83-.55,38.06,38.06,0,0,1,1.68,4h0c1.52,4.72,2.24,11.81-1.19,18.2C55.45,59.24,46.88,67,35.76,65.91,23.22,64.82,17.51,53.12,17.34,52.49A24.93,24.93,0,0,1,16.59,38Z"/><path class="cls-8" d="M40.44,40.32a1.68,1.68,0,0,1,0,2.12c-1,.19-2.19-.9-3.21-.9-1.18,0-1.85.94-2.69,1.22a5,5,0,0,1-3,.76h-.33A1.44,1.44,0,0,1,30,42.79c-.51-.74-.18-1.37,0-2.3,1-2.3,1.83-4.44,2.64-6.74a58,58,0,0,0,1.47-5.81c.17-1,.82-5,1.84-2.13a17.42,17.42,0,0,1,1.21,3.86,41.54,41.54,0,0,1,0,4.62,6.78,6.78,0,0,0,1.72,4.41A5.68,5.68,0,0,0,40.44,40.32Zm-4.8,1.33c0-.19-.17-.19,0,0a.2.2,0,0,0-.33,0ZM35,40.16s0-.19-.17-.19-.17,0-.17.19c0,0,0,.19.17.19s.17-.19.17-.19ZM33.84,38.6c0-.19-.17-.19-.33-.19s-.33.19-.33.19c0,.19.17.19.33.19s.33,0,.33-.19Zm0,2.32c0-.19,0-.19-.17-.19s-.17,0-.17.19,0,.19.17.19h0l.17-.19Zm-.33,1.19c0-.19,0-.19-.17-.19s-.17,0-.17.19h0c-.17,0-.17,0-.17.19s0,.19.17.19.17,0,.17-.19h0a.19.19,0,0,0,.17-.19ZM32.85,42h0a.2.2,0,0,0-.33,0,.38.38,0,0,0,.33,0Zm-.16,1.19Zm0-3h0a.2.2,0,0,0-.33,0,.2.2,0,0,0,.33,0Zm-.16,1.29h0a.2.2,0,0,0-.33,0s.07.19.33,0Zm-.85-2.3Zm0-1V38s-.17,0,0,.19c-.17.19-.17.19,0,.19s0,.08,0-.19Zm0,4.33h0a.2.2,0,0,0-.33,0c0,.18.16.18.33,0Zm-.18-1.57h0a.2.2,0,0,0-.33,0c-.1.18.16.18.33,0Zm0-1.19h0Zm-.43-.93s0-.19-.17-.19h0c-.17,0-.17,0-.17.19s0,.19.17.19S31.06,38.81,31.06,38.81Zm0,4.06s0-.19-.17-.19h0c-.17,0-.17,0-.17.19s0,.19.17.19C31.09,43.24,31.09,42.87,31.09,42.87Zm-.35-3h0a.2.2,0,0,0-.33,0c-.1.19-.1.19.33,0h0c-.1.19,0,.19,0,0Zm0,2.21h0a.2.2,0,0,0-.33,0s-.1.19.33,0Zm-.1-.82c0-.19,0-.19-.17-.19h0a.17.17,0,0,0-.17.19h0c0,.19.17.19.33.19v-.19Zm0-.55h0a.2.2,0,0,0-.33,0c-.17.19-.17.19.33,0Zm0,1.76h0a.2.2,0,0,0-.33,0c-.17.18-.17.18.33,0Zm0-.83h0Zm-.75.46h0a.2.2,0,0,0-.33,0,.2.2,0,0,0,.33,0Z"/><path class="cls-13" d="M38.4,48.12a20.24,20.24,0,0,0,3.32,0,5.3,5.3,0,0,1-3,.93c-3.32.21-7,.41-10.29-.47,0-.54,5.47-.22,6.29-.22A25.69,25.69,0,0,1,38.4,48.12Z"/></g></svg>