<?xml version="1.0" encoding="utf-8"?>
<!-- Generator: Adobe Illustrator 21.1.0, SVG Export Plug-In . SVG Version: 6.00 Build 0)  -->
<svg version="1.1" id="Layer_1" xmlns="http://www.w3.org/2000/svg" xmlns:xlink="http://www.w3.org/1999/xlink" x="0px" y="0px"
	 viewBox="0 0 200 100" style="enable-background:new 0 0 200 100;" xml:space="preserve">
<style type="text/css">
	.st0{fill:#E2C271;}
	.st1{fill:#FFFFFF;}
	.st2{font-family:'Chalkduster';}
	.st3{font-size:11.6667px;}
	.st4{font-size:10px;}
	.st5{fill:#0074A2;stroke:#F2F2F2;stroke-miterlimit:10;}
	.st6{fill:none;stroke:#000000;stroke-width:0.5;stroke-miterlimit:10;}
	.st7{fill:#E6E7E8;}
	.st8{fill:none;}
	.st9{fill:none;stroke:#000000;stroke-width:0.25;stroke-miterlimit:10;}
	.st10{fill:#E6E6E6;stroke:#C1272D;stroke-width:2;stroke-miterlimit:10;}
	.st11{fill:none;stroke:#000000;stroke-width:2;stroke-miterlimit:10;}
	.st12{fill:none;stroke:#000000;stroke-width:0.75;stroke-miterlimit:10;}
	.st13{fill:none;stroke:#000000;stroke-miterlimit:10;}
</style>
<g>
	<rect x="0.5" y="0.5" class="st0" width="199" height="99"/>
	<path d="M199,1v98H1V1H199 M200,0H0v100h200V0L200,0z"/>
</g>
<g>
	<path class="st1" d="M49.6,79.5c-1.6,0-2.8-1.3-2.8-2.8V43.3c0-1.6,1.3-2.8,2.8-2.8h107.1c1.6,0,2.8,1.3,2.8,2.8v33.3
		c0,1.6-1.3,2.8-2.8,2.8L49.6,79.5L49.6,79.5z"/>
	<path d="M156.7,41c1.3,0,2.3,1,2.3,2.3v33.3c0,1.3-1,2.3-2.3,2.3H49.6c-1.3,0-2.3-1-2.3-2.3V43.3c0-1.3,1-2.3,2.3-2.3H156.7
		 M156.7,40H49.6c-1.8,0-3.3,1.5-3.3,3.3v33.3c0,1.8,1.5,3.3,3.3,3.3h107.1c1.8,0,3.3-1.5,3.3-3.3V43.3C160,41.5,158.5,40,156.7,40
		L156.7,40z"/>
</g>
<text transform="matrix(0.8921 0 0 1 66.1577 54.791)" class="st2 st3">Nate Walker,</text>
<text transform="matrix(0.8921 0 0 1 64.0171 66.791)" class="st2 st4">Philadelphia Pa</text>
<path class="st5" d="M191.2,21.7h-18.8c-2.8,0-5-2.2-5-5V10c0-2.7,2.2-5,5-5h18.8c2.8,0,5,2.2,5,5v6.7
	C196.2,19.4,194,21.7,191.2,21.7z"/>
<path class="st6" d="M153.5,12.8c-0.2,4.4-3.5,7.7-7.5,7.4c-3.9-0.3-6.9-4.1-6.7-8.6c0.2-4.4,3.5-7.7,7.5-7.4
	C150.7,4.6,153.7,8.4,153.5,12.8z"/>
<polygon class="st7" points="175.3,18.3 180.8,8.6 186.2,18.3 "/>
<polygon class="st7" points="187.6,7.6 181.5,18.3 193.8,18.3 "/>
<path class="st8" d="M161.2,3.3c0,3.7,5.6,6.7,12.5,6.7"/>
<path class="st6" d="M167.5,8.3c0.8,0.4,2,0.9,3.4,0.9c2.6-0.1,3.3-2,5.5-1.7c2.1,0.2,2.2,1.8,4.1,1.7c1.9-0.1,2.2-1.6,4.1-1.7
	c1.7-0.1,2.3,1.1,4.1,1.7c1.3,0.5,3.4,0.6,6.2-0.9"/>
<path class="st6" d="M166.2,11.6c0.9,0.4,2.2,0.9,3.9,0.8c2.9-0.1,3.7-1.8,6.2-1.6c2.3,0.2,2.5,1.7,4.7,1.6c2.2-0.1,2.5-1.5,4.7-1.6
	c2-0.1,2.6,1,4.7,1.6c1.5,0.4,3.8,0.6,7-0.8"/>
<path class="st6" d="M166.2,17.9c0.9,0.2,2.2,0.5,3.9,0.5c2.9-0.1,3.7-1,6.2-0.9c2.3,0.1,2.5,1,4.7,0.9c2.2,0,2.5-0.9,4.7-0.9
	c2-0.1,2.6,0.6,4.7,0.9c1.5,0.3,3.8,0.3,7-0.5"/>
<path class="st6" d="M170,15c0.7,0.4,1.8,0.9,3.1,0.8c2.4-0.1,3-1.9,5-1.7c1.9,0.2,2,1.7,3.8,1.7c1.7-0.1,2-1.6,3.8-1.7
	c1.6-0.1,2.1,1.1,3.8,1.7c1.2,0.5,3,0.6,5.6-0.8"/>
<path class="st9" d="M151.9,13.1c-0.3,3.8-3.1,6.5-6.2,6s-5.4-4-5-7.8c0.3-3.8,3.1-6.5,6.2-6C149.9,5.8,152.2,9.3,151.9,13.1z"/>
<line class="st9" x1="201.3" y1="95" x2="201.3" y2="93.3"/>
<line class="st9" x1="121.3" y1="93.4" x2="121.3" y2="90"/>
<line class="st9" x1="123.8" y1="93.4" x2="123.8" y2="91.6"/>
<line class="st9" x1="126.3" y1="93.4" x2="126.3" y2="91.6"/>
<line class="st9" x1="128.8" y1="93.4" x2="128.8" y2="90"/>
<line class="st9" x1="131.3" y1="93.4" x2="131.3" y2="91.6"/>
<line class="st9" x1="133.8" y1="93.4" x2="133.8" y2="91.6"/>
<line class="st9" x1="136.3" y1="93.4" x2="136.3" y2="91.6"/>
<line class="st6" x1="118.8" y1="93.4" x2="136.3" y2="93.4"/>
<line class="st9" x1="136.3" y1="93.4" x2="136.3" y2="91.6"/>
<line class="st9" x1="138.8" y1="93.4" x2="138.8" y2="90"/>
<line class="st9" x1="141.3" y1="93.4" x2="141.3" y2="91.6"/>
<line class="st9" x1="143.8" y1="93.4" x2="143.8" y2="91.6"/>
<line class="st9" x1="146.3" y1="93.4" x2="146.3" y2="90"/>
<line class="st9" x1="148.8" y1="93.4" x2="148.8" y2="91.6"/>
<line class="st6" x1="151.3" y1="93.4" x2="151.3" y2="91.6"/>
<line class="st6" x1="136.3" y1="93.4" x2="153.8" y2="93.4"/>
<line class="st9" x1="153.8" y1="93.4" x2="153.8" y2="91.6"/>
<line class="st9" x1="156.3" y1="93.4" x2="156.3" y2="90"/>
<line class="st9" x1="158.8" y1="93.4" x2="158.8" y2="91.6"/>
<line class="st9" x1="161.3" y1="93.4" x2="161.3" y2="91.6"/>
<line class="st9" x1="163.8" y1="93.4" x2="163.8" y2="90"/>
<line class="st9" x1="166.3" y1="93.4" x2="166.3" y2="91.6"/>
<line class="st9" x1="168.8" y1="93.4" x2="168.8" y2="91.6"/>
<line class="st6" x1="153.8" y1="93.4" x2="171.3" y2="93.4"/>
<line class="st9" x1="171.3" y1="93.4" x2="171.3" y2="91.6"/>
<line class="st9" x1="173.8" y1="93.4" x2="173.8" y2="90"/>
<line class="st9" x1="176.3" y1="93.4" x2="176.3" y2="91.6"/>
<line class="st9" x1="178.8" y1="93.4" x2="178.8" y2="91.6"/>
<line class="st9" x1="181.3" y1="93.4" x2="181.3" y2="90"/>
<line class="st9" x1="183.8" y1="93.4" x2="183.8" y2="91.6"/>
<line class="st9" x1="186.3" y1="93.4" x2="186.3" y2="91.6"/>
<line class="st6" x1="171.3" y1="93.4" x2="188.8" y2="93.4"/>
<path class="st10" d="M17,28.3H6.7c-1.6,0-3-1.3-3-3V8c0-1.6,1.3-3,3-3H17c1.6,0,3,1.3,3,3v17.4C20,27,18.7,28.3,17,28.3z"/>
<line class="st11" x1="6.2" y1="10" x2="16.2" y2="10"/>
<line class="st12" x1="7.5" y1="15" x2="15" y2="15"/>
<line class="st12" x1="6.2" y1="18.3" x2="16.2" y2="18.3"/>
<line class="st12" x1="7.5" y1="23.3" x2="16.2" y2="23.3"/>
<line class="st13" x1="1" y1="1" x2="200" y2="0"/>
<line class="st13" x1="0" y1="100" x2="199" y2="99"/>
<line class="st13" x1="0.5" y1="0.5" x2="0" y2="100"/>
</svg>
