<?xml version="1.0" encoding="utf-8"?>
<!-- Generator: Adobe Illustrator 21.1.0, SVG Export Plug-In . SVG Version: 6.00 Build 0)  -->
<svg version="1.1" id="Layer_1" xmlns="http://www.w3.org/2000/svg" xmlns:xlink="http://www.w3.org/1999/xlink" x="0px" y="0px"
	 viewBox="0 0 84 77" style="enable-background:new 0 0 84 77;" xml:space="preserve">
<style type="text/css">
	.st0{fill:#7C7E7F;}
	.st1{fill:#FFFFFF;}
</style>
<g>
	<path class="st0" d="M80,65c0,2.8-2.2,5-5,5H9c-2.8,0-5-2.2-5-5V8c0-2.8,2.2-5,5-5h66c2.8,0,5,2.2,5,5V65z"/>
</g>
<g>
	<path class="st1" d="M15.9,33.4c0-2.8,2.2-5,5-5h1.2c2.8,0,5,2.2,5,5v23.1c0,2.8-2.2,5-5,5h-1.2c-2.8,0-5-2.2-5-5V33.4z"/>
</g>
<g>
	<ellipse class="st1" cx="21.4" cy="19.6" rx="6.6" ry="6.3"/>
</g>
<g>
	<path class="st1" d="M38.9,61.2c-2.8,0-5-2.2-5-5v-23c0-2.8,2.2-5,5-5h0.4c2.8,0,5,1.1,5,2.4s0.3,1.7,0.7,0.9s1.3-1.9,2-2.4
		s2-1.2,2.9-1.5s2.1-0.5,2.7-0.5s2.2,0,3.5,0s3.1,0.2,4,0.5s2.2,1,2.9,1.6s2.6,2.6,2.9,3.2s1.3,2.6,1.4,3.4s0.6,4.8,0.6,7.1
		s0,5.1,0,6.2s0,3.2,0,4.6s-0.3,4-0.7,5.8l0,0l0,0c-0.1,0.7-1.5,1.3-2.9,1.3c-1.5,0-5.8,0-6.3,0s-2-2.2-2-5l-0.1-10.7
		c0-2.7-0.4-5.2-0.8-5.4s-1-0.4-1.4-0.5S52.5,39,52,39s-1.4,0.1-1.8,0.1s-1.8,0.6-2.2,1.1s-1.4,4-1.4,6.7l-0.1,9c0,2.7-2.3,5-5.1,5
		h-2.5V61.2z"/>
</g>
</svg>
